# xmcd CD database file
#
# Track frame offsets:
#	150
#	16523
#	38817
#	66261
#	83211
#	104233
#	134462
#	156070
#	184476
#	206606
#	226990
#	249541
#
# Disc length: 3582 seconds
#
# Revision: 4
# Processed by: cddbd v1.5.2PL0 Copyright (c) Steve Scherf et al.
# Submitted via: CDex 1.51
#
DISCID=a30dfc0c
DTITLE=Rudy Linka - SONGS
DYEAR=2008
DGENRE=Jazz
TTITLE0=Just for you and few others
TTITLE1=Blues for Paul
TTITLE2=More South
TTITLE3=We all are in it
TTITLE4=Folks close to our farm
TTITLE5=I remember you
TTITLE6=As the first dance
TTITLE7=Right here right now
TTITLE8=The times we live in
TTITLE9=Our place in the hills
TTITLE10=Just about here
TTITLE11=The Koln Concert/Part II c
EXTD=YEAR: 2008
EXTT0=
EXTT1=
EXTT2=
EXTT3=
EXTT4=
EXTT5=
EXTT6=
EXTT7=
EXTT8=
EXTT9=
EXTT10=
EXTT11=
PLAYORDER=
